<mxfile host="Electron" agent="Mozilla/5.0 (Macintosh; Intel Mac OS X 10_15_7) AppleWebKit/537.36 (KHTML, like Gecko) draw.io/28.0.6 Chrome/138.0.7204.100 Electron/37.2.3 Safari/537.36" version="28.0.6">
  <diagram name="Page-1" id="1aDhxJW1-UueRnPE3yPS">
    <mxGraphModel dx="1106" dy="887" grid="1" gridSize="10" guides="1" tooltips="1" connect="1" arrows="1" fold="1" page="1" pageScale="1" pageWidth="850" pageHeight="1100" math="0" shadow="0">
      <root>
        <mxCell id="0" />
        <mxCell id="1" parent="0" />
        <mxCell id="il-U7c8zh_SrT7YiSjLC-1" value="App" style="whiteSpace=wrap;html=1;container=0;" vertex="1" parent="1">
          <mxGeometry x="40" y="40" width="50" height="60" as="geometry" />
        </mxCell>
        <mxCell id="il-U7c8zh_SrT7YiSjLC-13" value="" style="edgeStyle=orthogonalEdgeStyle;rounded=0;orthogonalLoop=1;jettySize=auto;html=1;startArrow=classic;startFill=1;endArrow=none;endFill=0;exitX=0;exitY=0.5;exitDx=0;exitDy=0;" edge="1" parent="1" source="il-U7c8zh_SrT7YiSjLC-18" target="il-U7c8zh_SrT7YiSjLC-1">
          <mxGeometry relative="1" as="geometry" />
        </mxCell>
        <mxCell id="il-U7c8zh_SrT7YiSjLC-12" value="FAQ?" style="strokeWidth=2;html=1;shape=mxgraph.flowchart.decision;whiteSpace=wrap;" vertex="1" parent="1">
          <mxGeometry x="215" y="190" width="100" height="100" as="geometry" />
        </mxCell>
        <mxCell id="il-U7c8zh_SrT7YiSjLC-16" value="" style="edgeStyle=orthogonalEdgeStyle;rounded=0;orthogonalLoop=1;jettySize=auto;html=1;startArrow=classic;startFill=1;endArrow=none;endFill=0;entryX=0.5;entryY=1;entryDx=0;entryDy=0;exitX=1;exitY=0.75;exitDx=0;exitDy=0;" edge="1" parent="1" source="il-U7c8zh_SrT7YiSjLC-1" target="il-U7c8zh_SrT7YiSjLC-18">
          <mxGeometry relative="1" as="geometry">
            <mxPoint x="200" y="90" as="sourcePoint" />
            <mxPoint x="130" y="90" as="targetPoint" />
            <Array as="points">
              <mxPoint x="160" y="85" />
              <mxPoint x="160" y="130" />
              <mxPoint x="265" y="130" />
            </Array>
          </mxGeometry>
        </mxCell>
        <mxCell id="il-U7c8zh_SrT7YiSjLC-17" value="refill, other, ..." style="text;html=1;align=center;verticalAlign=middle;resizable=0;points=[];autosize=1;strokeColor=none;fillColor=none;" vertex="1" parent="1">
          <mxGeometry x="170" y="130" width="100" height="30" as="geometry" />
        </mxCell>
        <mxCell id="il-U7c8zh_SrT7YiSjLC-18" value="Classifier" style="ellipse;whiteSpace=wrap;html=1;aspect=fixed;" vertex="1" parent="1">
          <mxGeometry x="225" y="30" width="80" height="80" as="geometry" />
        </mxCell>
        <mxCell id="il-U7c8zh_SrT7YiSjLC-21" value="prompt" style="text;html=1;align=center;verticalAlign=middle;whiteSpace=wrap;rounded=0;" vertex="1" parent="1">
          <mxGeometry x="130" y="40" width="60" height="30" as="geometry" />
        </mxCell>
        <mxCell id="il-U7c8zh_SrT7YiSjLC-27" value="Inference" style="ellipse;whiteSpace=wrap;html=1;aspect=fixed;" vertex="1" parent="1">
          <mxGeometry x="400" y="200" width="80" height="80" as="geometry" />
        </mxCell>
        <mxCell id="il-U7c8zh_SrT7YiSjLC-28" value="" style="edgeStyle=orthogonalEdgeStyle;rounded=0;orthogonalLoop=1;jettySize=auto;html=1;startArrow=classic;startFill=1;endArrow=none;endFill=0;exitX=0;exitY=0.5;exitDx=0;exitDy=0;entryX=1;entryY=0.5;entryDx=0;entryDy=0;entryPerimeter=0;" edge="1" parent="1" source="il-U7c8zh_SrT7YiSjLC-27" target="il-U7c8zh_SrT7YiSjLC-12">
          <mxGeometry relative="1" as="geometry">
            <mxPoint x="330" y="430" as="sourcePoint" />
            <mxPoint x="380" y="420" as="targetPoint" />
          </mxGeometry>
        </mxCell>
        <mxCell id="il-U7c8zh_SrT7YiSjLC-29" value="no" style="text;html=1;align=center;verticalAlign=middle;whiteSpace=wrap;rounded=0;" vertex="1" parent="1">
          <mxGeometry x="330" y="240" width="60" height="30" as="geometry" />
        </mxCell>
        <mxCell id="il-U7c8zh_SrT7YiSjLC-32" value="&lt;b&gt;1&lt;/b&gt;" style="ellipse;whiteSpace=wrap;html=1;aspect=fixed;" vertex="1" parent="1">
          <mxGeometry x="145" y="10" width="30" height="30" as="geometry" />
        </mxCell>
        <mxCell id="il-U7c8zh_SrT7YiSjLC-33" value="&lt;b&gt;2&lt;/b&gt;&lt;span style=&quot;color: rgba(0, 0, 0, 0); font-family: monospace; font-size: 0px; text-align: start; text-wrap-mode: nowrap;&quot;&gt;%3CmxGraphModel%3E%3Croot%3E%3CmxCell%20id%3D%220%22%2F%3E%3CmxCell%20id%3D%221%22%20parent%3D%220%22%2F%3E%3CmxCell%20id%3D%222%22%20value%3D%22%26lt%3Bb%26gt%3B1%26lt%3B%2Fb%26gt%3B%22%20style%3D%22ellipse%3BwhiteSpace%3Dwrap%3Bhtml%3D1%3Baspect%3Dfixed%3B%22%20vertex%3D%221%22%20parent%3D%221%22%3E%3CmxGeometry%20x%3D%22145%22%20y%3D%2210%22%20width%3D%2230%22%20height%3D%2230%22%20as%3D%22geometry%22%2F%3E%3C%2FmxCell%3E%3C%2Froot%3E%3C%2FmxGraphModel%3E&lt;/span&gt;" style="ellipse;whiteSpace=wrap;html=1;aspect=fixed;" vertex="1" parent="1">
          <mxGeometry x="195" y="160" width="30" height="30" as="geometry" />
        </mxCell>
        <mxCell id="il-U7c8zh_SrT7YiSjLC-34" value="&lt;b&gt;4&lt;/b&gt;" style="ellipse;whiteSpace=wrap;html=1;aspect=fixed;" vertex="1" parent="1">
          <mxGeometry x="250" y="390" width="30" height="30" as="geometry" />
        </mxCell>
        <mxCell id="il-U7c8zh_SrT7YiSjLC-35" value="" style="edgeStyle=orthogonalEdgeStyle;rounded=0;orthogonalLoop=1;jettySize=auto;html=1;startArrow=classic;startFill=1;endArrow=none;endFill=0;exitX=0;exitY=0.5;exitDx=0;exitDy=0;entryX=0.75;entryY=1;entryDx=0;entryDy=0;exitPerimeter=0;" edge="1" parent="1" source="il-U7c8zh_SrT7YiSjLC-12" target="il-U7c8zh_SrT7YiSjLC-1">
          <mxGeometry relative="1" as="geometry">
            <mxPoint x="345" y="70" as="sourcePoint" />
            <mxPoint x="210" y="70" as="targetPoint" />
          </mxGeometry>
        </mxCell>
        <mxCell id="il-U7c8zh_SrT7YiSjLC-36" value="" style="edgeStyle=orthogonalEdgeStyle;rounded=0;orthogonalLoop=1;jettySize=auto;html=1;startArrow=classic;startFill=1;endArrow=none;endFill=0;entryX=0.5;entryY=1;entryDx=0;entryDy=0;exitX=0.5;exitY=1;exitDx=0;exitDy=0;entryPerimeter=0;" edge="1" parent="1" source="il-U7c8zh_SrT7YiSjLC-1" target="il-U7c8zh_SrT7YiSjLC-12">
          <mxGeometry relative="1" as="geometry">
            <mxPoint x="150" y="90" as="sourcePoint" />
            <mxPoint x="325" y="115" as="targetPoint" />
            <Array as="points">
              <mxPoint x="65" y="320" />
              <mxPoint x="265" y="320" />
            </Array>
          </mxGeometry>
        </mxCell>
        <mxCell id="il-U7c8zh_SrT7YiSjLC-37" value="yes" style="text;html=1;align=center;verticalAlign=middle;resizable=0;points=[];autosize=1;strokeColor=none;fillColor=none;" vertex="1" parent="1">
          <mxGeometry x="140" y="290" width="40" height="30" as="geometry" />
        </mxCell>
        <mxCell id="il-U7c8zh_SrT7YiSjLC-38" value="&lt;b&gt;3a&lt;/b&gt;" style="ellipse;whiteSpace=wrap;html=1;aspect=fixed;" vertex="1" parent="1">
          <mxGeometry x="145" y="270" width="30" height="30" as="geometry" />
        </mxCell>
        <mxCell id="il-U7c8zh_SrT7YiSjLC-40" value="&lt;b&gt;3b&lt;/b&gt;" style="ellipse;whiteSpace=wrap;html=1;aspect=fixed;" vertex="1" parent="1">
          <mxGeometry x="345" y="270" width="30" height="30" as="geometry" />
        </mxCell>
        <mxCell id="il-U7c8zh_SrT7YiSjLC-41" value="" style="edgeStyle=orthogonalEdgeStyle;rounded=0;orthogonalLoop=1;jettySize=auto;html=1;startArrow=classic;startFill=1;endArrow=none;endFill=0;entryX=0.5;entryY=1;entryDx=0;entryDy=0;exitX=0.25;exitY=1;exitDx=0;exitDy=0;" edge="1" parent="1" source="il-U7c8zh_SrT7YiSjLC-1" target="il-U7c8zh_SrT7YiSjLC-27">
          <mxGeometry relative="1" as="geometry">
            <mxPoint x="260" y="320" as="sourcePoint" />
            <mxPoint x="460" y="510" as="targetPoint" />
            <Array as="points">
              <mxPoint x="53" y="360" />
              <mxPoint x="440" y="360" />
            </Array>
          </mxGeometry>
        </mxCell>
        <mxCell id="il-U7c8zh_SrT7YiSjLC-42" value="response" style="text;html=1;align=center;verticalAlign=middle;whiteSpace=wrap;rounded=0;" vertex="1" parent="1">
          <mxGeometry x="235" y="360" width="60" height="30" as="geometry" />
        </mxCell>
      </root>
    </mxGraphModel>
  </diagram>
</mxfile>
